:SAMPLES-PER-SECOND 30
:FULLY-SPECIFIED
:DEGREES
31
root  75.6531 38.4711 -1.95272 -48.8155 -83.9529 47.9333
RightUpLeg  7.14303 -9.96212 -5.75562
RightLeg  12.2367 4.5669 0.722187
RightFoot  -18.8485 -0.174792 -0.717502
RightToes  -2.32831e-009 0 -3.6325e-017
Spine  2.28694 1.95527 9.50761
Spine1  10.0532 3.66698 -5.69251
HEad  -11.1357 -8.07463 -5.1649
LeftShoulder1  -0.495542 4.80043 -32.0739
LeftArm  5.17628 15.6911 -41.0698
LeftForeArm  22.9923 -16.3145 -6.64656
LeftHand  -0.468061 15.9163 -4.02914
RightShoulder  -0.792914 -5.79441 27.9984
RightArm  23.2597 6.31043 50.6038
RightForeArm  5.95835 15.613 6.72595
RightHand  -0.543174 11.8342 -4.0675
LeftUpLeg  -20.2067 5.68266 -4.84978
LeftLeg  9.11613 5.71838 -0.353974
LeftFoot  -0.406104 0.708094 -7.36955
LeftToes  8.91272e-011 -1.70619e-011 7.36378e-012
32
root  74.926 38.3942 -1.91769 -50.1585 -84.0218 49.4767
RightUpLeg  8.56129 -9.75209 -5.84342
RightLeg  11.2916 4.50727 0.427089
RightFoot  -19.3218 -0.166056 -0.511535
RightToes  -2.32831e-009 0 -3.6325e-017
Spine  2.38254 1.95998 9.31028
Spine1  10.1392 3.79877 -6.18795
HEad  -11.8445 -7.71926 -4.85415
LeftShoulder1  -0.511422 4.84698 -31.8969
LeftArm  3.52635 16.1025 -40.6423
LeftForeArm  24.0287 -15.1087 -7.10241
LeftHand  -0.44514 16.2208 -3.73562
RightShoulder  -0.771142 -5.71318 28.2076
RightArm  24.3343 6.51356 51.3673
RightForeArm  6.4489 16.03 6.62354
RightHand  -0.312679 10.6964 -2.67451
LeftUpLeg  -19.6421 2.39805 -4.27788
LeftLeg  5.59812 9.21798 -1.29552
LeftFoot  -0.560786 0.706172 -7.44178
LeftToes  8.91272e-011 -1.70619e-011 7.36378e-012
33
root  74.0945 38.2501 -1.84906 -54.3919 -84.524 53.9355
RightUpLeg  9.77763 -9.70416 -6.07948
RightLeg  11.1116 5.33842 0.471472
RightFoot  -20.2477 -0.140461 -0.0422108
RightToes  -2.32831e-009 0 -3.6325e-017
Spine  3.07139 2.58334 9.36017
Spine1  9.01669 4.58114 -6.73958
HEad  -11.8126 -8.62456 -4.38916
LeftShoulder1  -0.29231 4.28434 -31.3459
LeftArm  1.92175 16.8915 -40.3063
LeftForeArm  26.8628 -13.9482 -7.44256
LeftHand  -0.421278 13.6605 -4.62377
RightShoulder  -0.973026 -6.17846 29.8408
RightArm  25.5609 6.19006 50.4701
RightForeArm  5.69088 16.4391 6.57867
RightHand  -0.33904 10.9219 -2.80953
LeftUpLeg  -19.5536 1.79944 -4.39144
LeftLeg  4.84493 10.3586 -1.49801
LeftFoot  -0.920077 0.669192 -7.24219
LeftToes  8.91272e-011 -1.70619e-011 7.36378e-012
34
root  73.1902 38.109 -1.74874 -58.7205 -84.7046 58.3152
RightUpLeg  11.2231 -9.68891 -6.62186
RightLeg  11.2282 6.17583 0.510726
RightFoot  -20.9925 -0.106077 0.428084
RightToes  -2.32831e-009 0 -3.6325e-017
Spine  2.78799 2.72674 9.22133
Spine1  9.54926 4.96188 -7.44705
HEad  -12.27 -8.53995 -3.80339
LeftShoulder1  -0.306131 4.33359 -30.8201
LeftArm  2.35291 17.386 -40.0371
LeftForeArm  26.7019 -14.0604 -7.44185
LeftHand  -0.455822 14.2248 -4.89217
RightShoulder  -1.01057 -6.27937 29.8596
RightArm  25.8584 6.25662 51.5611
RightForeArm  4.75978 16.0125 6.89714
RightHand  -0.536881 11.5991 -4.09039
LeftUpLeg  -19.3384 1.98229 -5.08887
LeftLeg  5.852 9.47891 -1.40557
LeftFoot  0.338861 0.536754 -5.35695
LeftToes  8.91272e-011 -1.70619e-011 7.36378e-012
35
root  72.1846 38.0051 -1.62331 -68.7074 -84.5519 68.2089
RightUpLeg  13.0182 -9.53735 -7.86294
RightLeg  11.0805 7.27809 0.485079
RightFoot  -21.4782 -0.0081829 1.53911
RightToes  -2.32831e-009 0 -3.6325e-017
Spine  2.09843 2.84921 8.61283
Spine1  10.6562 5.46325 -8.62632
HEad  -12.3111 -8.39818 -3.06776
LeftShoulder1  -0.488201 4.81805 -30.8287
LeftArm  0.300734 17.294 -39.0955
LeftForeArm  27.9121 -13.2564 -7.41903
LeftHand  -0.508181 12.5884 -6.67365
RightShoulder  -0.955793 -6.14647 29.5902
RightArm  25.6729 6.04827 52.974
RightForeArm  5.34756 15.3649 7.22785
RightHand  -0.564074 10.775 -4.45023
LeftUpLeg  -18.9639 2.13492 -6.2536
LeftLeg  7.50912 8.56169 -1.16719
LeftFoot  3.68661 0.00997605 -0.342065
LeftToes  8.91272e-011 -1.70619e-011 7.36378e-012
36
root  71.1749 37.9155 -1.46029 -70.6625 -83.5438 69.8264
RightUpLeg  14.3157 -8.7168 -9.38858
RightLeg  12.7225 7.03292 0.724566
RightFoot  -21.9646 0.192211 3.6541
RightToes  -2.32831e-009 0 -3.6325e-017
Spine  2.51165 2.56338 6.49468
Spine1  10.1844 5.06308 -8.3283
HEad  -11.8383 -7.98072 -2.78519
LeftShoulder1  -0.884655 5.8147 -32.1579
LeftArm  0.752958 16.2144 -37.3546
LeftForeArm  27.621 -12.5472 -7.87575
LeftHand  -0.813539 16.18 -7.48027
RightShoulder  -0.858648 -5.91182 29.0643
RightArm  24.4126 5.29651 53.7908
RightForeArm  6.20033 14.4003 7.56933
RightHand  -0.572224 10.886 -4.48394
LeftUpLeg  -18.9392 2.12192 -8.31654
LeftLeg  10.5309 8.04168 -0.00626023
LeftFoot  5.77071 -0.754094 4.8642
LeftToes  8.91272e-011 -1.70619e-011 7.36378e-012
37
root  70.1362 37.8727 -1.28707 -70.9956 -82.6404 69.4637
RightUpLeg  14.8536 -6.15485 -10.1772
RightLeg  16.4869 5.18352 1.04667
RightFoot  -21.6033 0.489562 7.09146
RightToes  -2.32831e-009 0 -3.6325e-017
Spine  3.26325 2.53255 5.0694
Spine1  9.37274 4.98879 -8.59588
HEad  -11.174 -6.16208 -2.71315
LeftShoulder1  -0.878173 5.76979 -32.5783
LeftArm  -0.986191 15.2029 -36.5209
LeftForeArm  29.881 -10.6388 -8.28609
LeftHand  -0.505759 13.8476 -5.56067
RightShoulder  -0.842122 -5.84716 29.333
RightArm  22.0739 4.31553 53.672
RightForeArm  7.36956 12.9019 7.96022
RightHand  -0.650032 11.6274 -4.8575
LeftUpLeg  -18.0843 2.81034 -10.0693
LeftLeg  13.6228 6.72003 1.05027
LeftFoot  4.18334 -0.826695 5.86953
LeftToes  8.91272e-011 -1.70619e-011 7.36378e-012
38
root  69.161 37.9144 -1.14765 -74.044 -82.183 72.0603
RightUpLeg  13.6638 -3.35403 -10.5506
RightLeg  22.375 3.87783 1.59467
RightFoot  -19.6164 0.719458 11.9078
RightToes  -2.32831e-009 0 -3.6325e-017
Spine  4.29059 2.96929 4.14541
Spine1  7.84973 5.36308 -9.56192
HEad  -9.69504 -7.01192 -3.0859
LeftShoulder1  -0.612255 5.09122 -32.4268
LeftArm  -4.19762 14.6825 -36.5383
LeftForeArm  32.493 -8.10625 -8.24031
LeftHand  -0.271566 12.0145 -3.5316
RightShoulder  -0.789432 -5.69198 29.4424
RightArm  20.5283 2.37674 53.0626
RightForeArm  9.01088 12.0951 8.00171
RightHand  -0.651259 10.3633 -5.17808
LeftUpLeg  -16.7078 3.20269 -10.658
LeftLeg  15.2642 6.64017 1.15894
LeftFoot  2.02094 -0.721129 6.0364
LeftToes  8.91272e-011 -1.70619e-011 7.36378e-012
39
root  68.2772 37.9769 -1.02335 -84.7919 -82.0924 83.0971
RightUpLeg  9.33167 -0.515457 -11.0026
RightLeg  31.3451 3.92104 2.35405
RightFoot  -15.4191 0.502413 17.1014
RightToes  -2.32831e-009 0 -3.6325e-017
Spine  4.19904 3.67849 2.54418
Spine1  7.7305 5.81637 -9.61152
HEad  -9.76719 -6.76255 -3.59169
LeftShoulder1  -0.578415 5.00271 -32.4441
LeftArm  -4.54721 13.9127 -37.0643
LeftForeArm  31.4186 -8.25845 -8.05563
LeftHand  -0.37567 13.6953 -4.0699
RightShoulder  -0.742356 -5.61342 28.532
RightArm  19.8594 2.26975 53.3631
RightForeArm  12.3321 11.0017 8.25669
RightHand  -0.378433 9.52106 -3.33433
LeftUpLeg  -15.7752 3.42179 -10.6102
LeftLeg  15.9561 7.92694 0.889988
LeftFoot  -0.12408 -0.566986 5.77796
LeftToes  8.91272e-011 -1.70619e-011 7.36378e-012
40
root  67.337 38.1289 -0.879246 -90.0838 -82.0808 88.1537
RightUpLeg  4.80557 0.980615 -11.526
RightLeg  40.6999 4.17031 3.56461
RightFoot  -7.18936 -0.618551 16.9754
RightToes  -2.32831e-009 0 -3.6325e-017
Spine  3.81066 3.378 1.50615
Spine1  8.25007 5.38944 -9.58471
HEad  -10.5052 -5.72906 -3.65578
LeftShoulder1  -0.608481 5.09176 -32.1657
LeftArm  -3.56239 13.558 -37.6298
LeftForeArm  30.4687 -9.64421 -7.97472
LeftHand  -0.32442 12.2431 -4.18691
RightShoulder  -0.613848 -5.28545 27.7118
RightArm  20.1061 2.82227 53.9933
RightForeArm  15.5547 10.7856 8.32071
RightHand  -0.266852 7.73553 -2.73552
LeftUpLeg  -13.6083 2.76103 -10.4023
LeftLeg  15.4834 9.50207 0.748213
LeftFoot  -1.73174 -0.458468 5.57405
LeftToes  8.91272e-011 -1.70619e-011 7.36378e-012
41
root  66.4512 38.2247 -0.786583 -93.3563 -82.1381 91.2424
RightUpLeg  -0.468946 2.2067 -11.6438
RightLeg  49.7321 4.03944 4.75798
RightFoot  1.38793 -1.4614 12.9713
RightToes  -2.32831e-009 0 -3.6325e-017
Spine  2.53912 2.89152 -0.30659
Spine1  10.0039 4.5763 -8.41299
HEad  -11.4811 -4.5738 -3.70655
LeftShoulder1  -0.591479 5.0332 -32.525
LeftArm  0.496464 11.9822 -37.854
LeftForeArm  27.7714 -11.6721 -8.34635
LeftHand  -0.250427 12.8561 -2.69303
RightShoulder  -0.501943 -4.97729 27.2437
RightArm  20.0305 4.57693 54.3203
RightForeArm  16.7444 10.2055 8.54618
RightHand  -0.30881 7.2876 -3.18041
LeftUpLeg  -11.8756 2.29354 -10.3176
LeftLeg  15.5249 10.4381 0.946648
LeftFoot  -3.26495 -0.355571 5.31032
LeftToes  8.91272e-011 -1.70619e-011 7.36378e-012
